<?xml version="1.0" standalone="no"?>
<!DOCTYPE svg PUBLIC "-//W3C//DTD SVG 20010904//EN"
 "http://www.w3.org/TR/2001/REC-SVG-20010904/DTD/svg10.dtd">
<svg version="1.0" xmlns="http://www.w3.org/2000/svg"
 width="219.000000pt" height="204.000000pt" viewBox="0 0 219.000000 204.000000"
 preserveAspectRatio="xMidYMid meet">
<metadata>
Created by potrace 1.10, written by Peter Selinger 2001-2011
</metadata>
<g transform="translate(0.000000,204.000000) scale(0.100000,-0.100000)"
fill="#000000" stroke="none">
<path d="M907 1884 c-115 -21 -113 -18 -109 -114 3 -70 6 -79 18 -69 10 8 14
29 13 67 -3 69 6 76 119 92 136 20 375 -2 356 -31 -3 -5 2 -6 10 -3 9 3 16 1
16 -6 0 -6 5 -8 10 -5 6 3 10 15 10 25 0 50 -266 76 -443 44z"/>
<path d="M911 1809 c-55 -11 -64 -30 -59 -125 3 -57 9 -90 20 -100 12 -12 48
-15 199 -15 232 0 229 -2 228 125 -1 115 0 114 -203 118 -86 2 -169 0 -185 -3z
m357 -119 l-3 -91 -190 0 -190 0 -3 91 -3 90 196 0 196 0 -3 -90z"/>
<path d="M1362 1808 c-9 -9 -12 -179 -12 -705 0 -669 1 -694 20 -746 45 -120
148 -192 275 -191 149 0 256 93 285 245 11 56 14 1338 4 1377 -8 26 -48 39
-69 22 -11 -9 -15 -33 -15 -85 l0 -72 -66 -34 c-57 -28 -77 -33 -139 -34 -63
0 -81 4 -141 35 l-68 35 -1 73 c0 53 -4 75 -15 82 -21 13 -44 12 -58 -2z m47
-200 c-5 -9 -10 -106 -11 -215 l-1 -198 -7 225 c-4 124 -5 229 -3 233 3 5 11
0 18 -10 9 -12 10 -23 4 -35z m86 -23 l50 -26 5 -402 c3 -258 9 -402 15 -402
6 0 11 141 13 398 l2 397 25 0 25 0 0 -526 c0 -416 3 -525 13 -522 9 4 13 120
15 526 l2 522 23 0 22 0 0 -322 c0 -280 2 -323 15 -323 13 0 16 45 20 327 l5
327 50 26 c28 14 51 25 53 25 1 0 2 -255 2 -566 0 -374 -4 -580 -11 -608 -21
-86 -107 -155 -192 -156 -77 0 -154 51 -188 125 -17 37 -19 77 -19 623 0 320
1 582 3 582 1 0 25 -11 52 -25z m-81 -1187 c10 -33 79 -107 123 -131 69 -38
183 -31 234 14 13 12 34 28 47 36 12 9 22 19 22 25 0 5 5 14 10 21 6 7 17 21
25 32 14 19 14 18 5 -8 -5 -15 -9 -31 -7 -36 1 -5 -16 -30 -39 -57 -72 -86
-209 -111 -310 -58 -55 29 -67 43 -109 125 l-30 58 5 218 5 218 6 -215 c3
-118 9 -227 13 -242z"/>
<path d="M360 1712 l-65 -17 -3 -742 -2 -742 57 -22 c108 -43 368 -28 431 23
18 16 18 1461 -1 1476 -50 42 -295 55 -417 24z m363 -40 l27 -12 -2 -712 -3
-712 -55 -18 c-72 -22 -218 -23 -291 -2 -30 9 -57 19 -62 23 -4 4 -8 325 -10
714 l-2 707 30 9 c59 19 72 20 205 17 74 -2 147 -8 163 -14z"/>
<path d="M385 1598 c-3 -8 -4 -112 -3 -233 l3 -220 150 0 150 0 0 230 0 230
-148 3 c-114 2 -149 0 -152 -10z m265 -223 l0 -195 -115 0 -115 0 0 195 0 195
115 0 115 0 0 -195z"/>
<path d="M1327 364 c-4 -4 -7 -31 -7 -60 0 -33 -5 -58 -15 -68 -61 -60 -362
-66 -454 -9 -14 9 -21 10 -16 3 5 -9 1 -10 -14 -5 -29 9 -26 -9 4 -23 102 -47
294 -59 415 -28 101 27 110 36 109 104 0 61 -10 98 -22 86z"/>
</g>
</svg>
